<mxfile host="65bd71144e">
    <diagram id="pHsxi5iWS5KXRpg3r2qr" name="第 1 页">
        <mxGraphModel dx="359" dy="834" grid="0" gridSize="10" guides="1" tooltips="1" connect="1" arrows="1" fold="1" page="0" pageScale="1" pageWidth="827" pageHeight="1169" math="0" shadow="0">
            <root>
                <mxCell id="0"/>
                <mxCell id="1" parent="0"/>
                <mxCell id="2" value="产品：螺旋模型" style="rounded=1;whiteSpace=wrap;html=1;absoluteArcSize=1;" parent="1" vertex="1">
                    <mxGeometry x="80" y="90" width="120" height="40" as="geometry"/>
                </mxCell>
                <mxCell id="3" value="" style="endArrow=none;html=1;fontFamily=Helvetica;fontSize=12;fontColor=default;" parent="1" edge="1">
                    <mxGeometry width="50" height="50" relative="1" as="geometry">
                        <mxPoint x="120" y="40" as="sourcePoint"/>
                        <mxPoint x="120" y="-120" as="targetPoint"/>
                    </mxGeometry>
                </mxCell>
                <mxCell id="4" value="" style="endArrow=none;html=1;fontFamily=Helvetica;fontSize=12;fontColor=default;" parent="1" edge="1">
                    <mxGeometry width="50" height="50" relative="1" as="geometry">
                        <mxPoint x="40" y="-40" as="sourcePoint"/>
                        <mxPoint x="200" y="-40" as="targetPoint"/>
                    </mxGeometry>
                </mxCell>
                <mxCell id="5" value="开发" style="text;html=1;strokeColor=none;fillColor=none;align=center;verticalAlign=middle;whiteSpace=wrap;rounded=0;fontFamily=Helvetica;fontSize=12;fontColor=default;" parent="1" vertex="1">
                    <mxGeometry y="-50" width="40" height="20" as="geometry"/>
                </mxCell>
                <mxCell id="6" value="算法" style="text;html=1;strokeColor=none;fillColor=none;align=center;verticalAlign=middle;whiteSpace=wrap;rounded=0;fontFamily=Helvetica;fontSize=12;fontColor=default;" parent="1" vertex="1">
                    <mxGeometry x="200" y="-50" width="40" height="20" as="geometry"/>
                </mxCell>
                <mxCell id="7" value="实验" style="text;html=1;strokeColor=none;fillColor=none;align=center;verticalAlign=middle;whiteSpace=wrap;rounded=0;fontFamily=Helvetica;fontSize=12;fontColor=default;" parent="1" vertex="1">
                    <mxGeometry x="100" y="-140" width="40" height="20" as="geometry"/>
                </mxCell>
                <mxCell id="8" value="稳定" style="text;html=1;strokeColor=none;fillColor=none;align=center;verticalAlign=middle;whiteSpace=wrap;rounded=0;fontFamily=Helvetica;fontSize=12;fontColor=default;" parent="1" vertex="1">
                    <mxGeometry x="100" y="40" width="40" height="20" as="geometry"/>
                </mxCell>
                <mxCell id="9" value="&lt;font style=&quot;font-size: 8px;&quot;&gt;小蓝：第二个吃螃蟹&lt;/font&gt;" style="shape=umlActor;verticalLabelPosition=bottom;verticalAlign=top;html=1;outlineConnect=0;rounded=0;fontFamily=Helvetica;fontSize=8;fontColor=default;fillColor=none;gradientColor=none;" parent="1" vertex="1">
                    <mxGeometry x="50" y="-110" width="10" height="20" as="geometry"/>
                </mxCell>
                <mxCell id="10" value="小绿：异想天开" style="shape=umlActor;verticalLabelPosition=bottom;verticalAlign=top;html=1;outlineConnect=0;rounded=0;fontFamily=Helvetica;fontSize=8;fontColor=default;fillColor=none;gradientColor=none;" parent="1" vertex="1">
                    <mxGeometry x="150" y="-120" width="10" height="20" as="geometry"/>
                </mxCell>
                <mxCell id="11" value="小粉：经验老道" style="shape=umlActor;verticalLabelPosition=bottom;verticalAlign=top;html=1;outlineConnect=0;rounded=0;fontFamily=Helvetica;fontSize=8;fontColor=default;fillColor=none;gradientColor=none;" parent="1" vertex="1">
                    <mxGeometry x="80" y="10" width="10" height="20" as="geometry"/>
                </mxCell>
                <mxCell id="12" value="小红：班里第一" style="shape=umlActor;verticalLabelPosition=bottom;verticalAlign=top;html=1;outlineConnect=0;rounded=0;fontFamily=Helvetica;fontSize=8;fontColor=default;fillColor=none;gradientColor=none;" parent="1" vertex="1">
                    <mxGeometry x="170" y="-10" width="10" height="20" as="geometry"/>
                </mxCell>
                <mxCell id="14" value="小黄：步步为营" style="shape=umlActor;verticalLabelPosition=bottom;verticalAlign=top;html=1;outlineConnect=0;rounded=0;fontFamily=Helvetica;fontSize=8;fontColor=default;fillColor=none;gradientColor=none;" parent="1" vertex="1">
                    <mxGeometry x="170" y="-80" width="10" height="20" as="geometry"/>
                </mxCell>
                <mxCell id="16" value="老白：心有余力尚可" style="shape=umlActor;verticalLabelPosition=bottom;verticalAlign=top;html=1;outlineConnect=0;rounded=0;fontFamily=Helvetica;fontSize=9;fontColor=default;fillColor=none;gradientColor=none;" parent="1" vertex="1">
                    <mxGeometry x="90" y="-80" width="30" height="60" as="geometry"/>
                </mxCell>
                <mxCell id="20" style="edgeStyle=none;html=1;" edge="1" parent="1" source="17" target="2">
                    <mxGeometry relative="1" as="geometry"/>
                </mxCell>
                <mxCell id="17" value="短期项目：瀑布模型" style="rounded=1;whiteSpace=wrap;html=1;absoluteArcSize=1;" vertex="1" parent="1">
                    <mxGeometry x="200" y="170" width="120" height="40" as="geometry"/>
                </mxCell>
                <mxCell id="19" style="edgeStyle=none;html=1;" edge="1" parent="1" source="18" target="17">
                    <mxGeometry relative="1" as="geometry">
                        <Array as="points"/>
                    </mxGeometry>
                </mxCell>
                <mxCell id="21" style="edgeStyle=none;html=1;" edge="1" parent="1" source="18" target="2">
                    <mxGeometry relative="1" as="geometry"/>
                </mxCell>
                <mxCell id="18" value="实验性项目：快速+演化模型" style="rounded=1;whiteSpace=wrap;html=1;absoluteArcSize=1;" vertex="1" parent="1">
                    <mxGeometry x="80" y="250" width="240" height="40" as="geometry"/>
                </mxCell>
                <mxCell id="22" value="新方法" style="text;html=1;strokeColor=none;fillColor=none;align=center;verticalAlign=middle;whiteSpace=wrap;rounded=0;" vertex="1" parent="1">
                    <mxGeometry x="130" y="220" width="60" height="30" as="geometry"/>
                </mxCell>
                <mxCell id="23" value="交付" style="text;html=1;strokeColor=none;fillColor=none;align=center;verticalAlign=middle;whiteSpace=wrap;rounded=0;" vertex="1" parent="1">
                    <mxGeometry y="95" width="60" height="30" as="geometry"/>
                </mxCell>
                <mxCell id="27" style="edgeStyle=none;html=1;" edge="1" parent="1" source="24" target="23">
                    <mxGeometry relative="1" as="geometry"/>
                </mxCell>
                <mxCell id="24" value="验证" style="text;html=1;strokeColor=none;fillColor=none;align=center;verticalAlign=middle;whiteSpace=wrap;rounded=0;" vertex="1" parent="1">
                    <mxGeometry y="175" width="60" height="30" as="geometry"/>
                </mxCell>
                <mxCell id="26" style="edgeStyle=none;html=1;" edge="1" parent="1" source="25" target="24">
                    <mxGeometry relative="1" as="geometry"/>
                </mxCell>
                <mxCell id="25" value="实验" style="text;html=1;strokeColor=none;fillColor=none;align=center;verticalAlign=middle;whiteSpace=wrap;rounded=0;" vertex="1" parent="1">
                    <mxGeometry y="255" width="60" height="30" as="geometry"/>
                </mxCell>
                <mxCell id="28" value="阶段性总结" style="text;html=1;strokeColor=none;fillColor=none;align=center;verticalAlign=middle;whiteSpace=wrap;rounded=0;" vertex="1" parent="1">
                    <mxGeometry x="230" y="220" width="90" height="30" as="geometry"/>
                </mxCell>
                <mxCell id="29" value="项目经验" style="text;html=1;strokeColor=none;fillColor=none;align=center;verticalAlign=middle;whiteSpace=wrap;rounded=0;" vertex="1" parent="1">
                    <mxGeometry x="230" y="140" width="60" height="30" as="geometry"/>
                </mxCell>
                <mxCell id="30" value="新功能" style="text;html=1;strokeColor=none;fillColor=none;align=center;verticalAlign=middle;whiteSpace=wrap;rounded=0;" vertex="1" parent="1">
                    <mxGeometry x="120" y="190" width="60" height="30" as="geometry"/>
                </mxCell>
                <mxCell id="31" value="开发经验" style="text;html=1;strokeColor=none;fillColor=none;align=center;verticalAlign=middle;whiteSpace=wrap;rounded=0;" vertex="1" parent="1">
                    <mxGeometry x="100" y="160" width="60" height="30" as="geometry"/>
                </mxCell>
            </root>
        </mxGraphModel>
    </diagram>
</mxfile>